{"title":"Touchy Feely 2013 WEBRip 480p x264 AAC - VYTO [P2PDL]","uid":8797390,"size":320851004,"categoryP":"video","categoryS":"movies","magnet":"?xt=urn:btih:070bd6077502cc0d9f60204cfb1e20812fa71dbc&amp;dn=Touchy+Feely+2013+WEBRip+480p+x264+AAC+-+VYTO+%5BP2PDL%5D&amp;tr=udp%3A%2F%2Ftracker.openbittorrent.com%3A80&amp;tr=udp%3A%2F%2Fopen.demonii.com%3A1337&amp;tr=udp%3A%2F%2Ftracker.coppersurfer.tk%3A6969&amp;tr=udp%3A%2F%2Fexodus.desync.com%3A6969","seeders":1,"leechers":0,"uploader":"ValidusVyto","files":-1,"time":1376107622,"description":"_______ Visit us at our Semi Public Bittorrent Community ________\n  &lt;a href=&quot;\nhttp://p2pdl.com&quot; rel=&quot;nofollow&quot; target=&quot;_NEW&quot;&gt;\nhttp://p2pdl.com&lt;/a&gt;  _____________________________ &lt;a href=&quot; http://p2pdl.com&quot; rel=&quot;nofollow&quot; target=&quot;_NEW&quot;&gt; http://p2pdl.com&lt;/a&gt;\n\n\n\nTouchy Feely 2013 WEBRip 480p x264 AAC - VYTO\n\n\nGenre: Drama \nPlot: A massage therapist is unable to do her job when stricken with a mysterious and\nsudden aversion to bodily contact. Meanwhile, her uptight brother's floundering dental\npractice receives new life when clients seek out his healing touch. \nDirector: Lynn Shelton\nStars: Rosemarie DeWitt, Scoot McNairy, Ellen Page.\nRated: R for language, some drug use and brief sexuality.\n\n\nIMDb: &lt;a href=&quot;\nhttp://www.imdb.com/title/tt2364949/&quot; rel=&quot;nofollow&quot; target=&quot;_NEW&quot;&gt;\nhttp://www.imdb.com/title/tt2364949/&lt;/a&gt;\n\n\nFormat                         : MPEG-4\nFile size                      : 302 MiB\nDuration                       : 1h 28mn\nOverall bit rate               : 479 Kbps\n\nVideo\nFormat                         : AVC\nDuration                       : 1h 28mn\nBit rate                       : 434 Kbps\nWidth                          : 720 pixels\nHeight                         : 400 pixels\nDisplay aspect ratio           : 16:9\nFrame rate mode                : Constant\nFrame rate                     : 23.976 fps\nBit depth                      : 8 bits\nStream size                    : 273 MiB (91%)\nWriting library                : x264 core 133 r2334\n\nAudio\nFormat                         : AAC\nBit rate mode                  : Variable\nBit rate                       : 41.0 Kbps\nChannel(s)                     : 2 channels\nChannel positions              : Front: L R\nSampling rate                  : 48.0 KHz\nStream size                    : 25.8 MiB (9%)\nLanguage                       : English\n\nSubtitle                       : Yes(English)\n\nSource                         : 720p.WEB-DL.X264-WEBiOS\n &lt;a href=&quot;\nhttp://ultraimg.com/images/Sx6Bv.png&quot; rel=&quot;nofollow&quot; target=&quot;_NEW&quot;&gt;\nhttp://ultraimg.com/images/Sx6Bv.png&lt;/a&gt; &lt;a href=&quot;\nhttp://ultraimg.com/images/4J1ji.png&quot; rel=&quot;nofollow&quot; target=&quot;_NEW&quot;&gt;\nhttp://ultraimg.com/images/4J1ji.png&lt;/a&gt; &lt;a href=&quot;\nhttp://ultraimg.com/images/mz8qR.png&quot; rel=&quot;nofollow&quot; target=&quot;_NEW&quot;&gt;\nhttp://ultraimg.com/images/mz8qR.png&lt;/a&gt; &lt;a href=&quot;\nhttp://ultraimg.com/images/URcFK.png&quot; rel=&quot;nofollow&quot; target=&quot;_NEW&quot;&gt;\nhttp://ultraimg.com/images/URcFK.png&lt;/a&gt; &lt;a href=&quot;\nhttp://ultraimg.com/images/WhDGY.png&quot; rel=&quot;nofollow&quot; target=&quot;_NEW&quot;&gt;\nhttp://ultraimg.com/images/WhDGY.png&lt;/a&gt; &lt;a href=&quot;\nhttp://ultraimg.com/images/3E9LA.png&quot; rel=&quot;nofollow&quot; target=&quot;_NEW&quot;&gt;\nhttp://ultraimg.com/images/3E9LA.png&lt;/a&gt;\n\n\n----------------------------------------------------------------------------------------------------\n\n\nRecommend to you to use latest version of VLC player. Install K-Lite Codec Pack or shark007 codecs\nin case of any kind of problem in playback (For non-VLC Media Player users). Alternatively, install\nCore AVC codecs, the fastest decoder that there is coupled with Community Center Codec Pack and play\non Windows Media Player Classic. Check sample to be sure.\nEnjoy!\n\nEncoder Notes:Looking For Early Access To Anything You Can Provide DVDScr, R5, DVDR, BluRay, Direct\nAudio, Music Releases and Seedboxes. We require dedicated servers, so as to do more \nand fast releases of movies.\nIf You Got anything to offer please contact us at &quot;&lt;a class=&quot;__cf_email__&quot; href=&quot;/cdn-cgi/l/email-protection&quot; data-cfemail=&quot;6010120720081513084e030f0d&quot;&gt;[email&amp;#160;protected]&lt;/a&gt;&lt;script cf-hash='f9e31' type=&quot;text/javascript&quot;&gt;\n/* &lt;![CDATA[ */!function(){try{var t=&quot;currentScript&quot;in document?document.currentScript:function(){for(var t=document.getElementsByTagName(&quot;script&quot;),e=t.length;e--;)if(t[e].getAttribute(&quot;cf-hash&quot;))return t[e]}();if(t&amp;&amp;t.previousSibling){var e,r,n,i,c=t.previousSibling,a=c.getAttribute(&quot;data-cfemail&quot;);if(a){for(e=&quot;&quot;,r=parseInt(a.substr(0,2),16),n=2;a.length-n;n+=2)i=parseInt(a.substr(n,2),16)^r,e+=String.fromCharCode(i);e=document.createTextNode(e),c.parentNode.replaceChild(e,c)}}}catch(u){}}();/* ]]&gt; */&lt;/script&gt;&quot;.\n\nFace book Fan Page:  \nSearch P2PDL on FB and Hit like!!!\n\n\nAlso for more movies(VYTO, PRiSTiNE or ViZNU releases) and music ([VX]) visit this page. &lt;a href=&quot;\nhttp://thepiratebay.se/user/vitamin_x&quot; rel=&quot;nofollow&quot; target=&quot;_NEW&quot;&gt;\nhttp://thepiratebay.se/user/vitamin_x&lt;/a&gt;","torrent":{"xt":"urn:btih:070bd6077502cc0d9f60204cfb1e20812fa71dbc","amp;dn":"Touchy+Feely+2013+WEBRip+480p+x264+AAC+-+VYTO+%5BP2PDL%5D","amp;tr":["udp%3A%2F%2Ftracker.openbittorrent.com%3A80","udp%3A%2F%2Fopen.demonii.com%3A1337","udp%3A%2F%2Ftracker.coppersurfer.tk%3A6969","udp%3A%2F%2Fexodus.desync.com%3A6969"],"infoHash":"070bd6077502cc0d9f60204cfb1e20812fa71dbc","infoHashBuffer":{"type":"Buffer","data":[7,11,214,7,117,2,204,13,159,96,32,76,251,30,32,129,47,167,29,188]},"announce":[],"urlList":[]}}